<svg width="164" height="26" viewBox="0 0 164 26" fill="none" xmlns="http://www.w3.org/2000/svg">
<path d="M17.908 3.14827C18.8569 4.06487 19.3885 5.99794 19.9587 9.01824H20.1262V1.3723H0.730957V1.82487H1.48941C2.44763 1.82696 3.17175 2.01215 3.61184 2.47409C4.08418 2.9225 4.27354 3.6279 4.27458 4.54033L4.27562 21.9057C4.27458 22.8182 4.08418 23.5225 3.61288 23.9709C3.12285 24.4277 2.3904 24.6201 1.45508 24.6201H0.730957V25.0738H8.98033V24.6201H8.22187C7.26574 24.6191 6.53954 24.4454 6.06407 24.0063C5.58965 23.5548 5.40237 22.8411 5.40029 21.9057V12.9166H10.0655C11.5148 12.9208 12.5323 13.2027 13.0441 13.931C13.4978 14.5979 13.6746 15.7934 13.6996 17.6297H14.0835L14.0846 7.68027H13.7006C13.6757 9.49578 13.4832 10.7099 13.015 11.4049C12.5073 12.1623 11.4939 12.4609 10.0665 12.4641H5.40029V4.53929C5.40237 3.62686 5.59173 2.92146 6.05783 2.48033C6.52809 2.01631 7.25117 1.82592 8.1865 1.82487H11.8373C14.7941 1.8332 16.8999 2.21607 17.908 3.14827Z" fill="#787E85"/>
<path d="M110.952 14.3701C113.552 14.3233 115.264 14.2993 116.097 14.2993C119.311 14.3004 121.688 13.7302 123.23 12.644C124.77 11.5579 125.531 9.97541 125.538 7.76559C125.532 5.60259 124.775 4.05759 123.242 2.99325C121.705 1.92996 119.335 1.37126 116.133 1.3723H105.877V1.82488H106.741C107.679 1.82592 108.41 2.03088 108.878 2.52403C109.337 3.0203 109.525 3.77147 109.527 4.75362V21.9057C109.521 22.9056 109.377 23.6151 108.941 24.0354C108.492 24.4703 107.764 24.616 106.741 24.6212H105.877V25.0738H114.339V24.6212H113.474C112.452 24.616 111.723 24.4703 111.29 24.051C110.816 23.6245 110.658 22.9066 110.653 21.9057V14.3763L110.952 14.3701ZM110.653 4.75258C110.652 3.83182 110.882 3.08481 111.387 2.57085C111.894 2.05689 112.636 1.8228 113.545 1.82488H116.594C118.748 1.82592 120.39 2.13076 121.528 2.78725C123.174 3.71633 123.995 5.4226 123.987 7.73021C123.995 9.89426 123.06 11.5901 121.252 12.669C119.82 13.5336 118.015 13.9539 115.849 13.9539C114.846 13.9539 113.213 13.8946 110.942 13.777L110.653 13.7604V4.75258Z" fill="black"/>
<path d="M157.261 21.3731C157.904 22.3011 158.252 22.8702 158.274 23.3581C158.285 23.7795 158.034 24.1603 157.649 24.3476C157.267 24.5432 156.766 24.6191 156.127 24.6212H154.978V25.0727H163.83V24.6139C162.702 24.5681 161.71 24.2581 160.883 23.6838C160.125 23.1771 159.352 22.3469 158.534 21.1951L152.137 12.1571L156.941 5.4611C157.874 4.14811 158.648 3.25856 159.313 2.76957C160.112 2.18071 161.118 1.87274 162.307 1.82801V1.37023H154.448V1.82801C155.201 1.85194 155.796 1.96326 156.25 2.19423C156.764 2.44393 157.081 2.92147 157.071 3.47497C157.067 4.14603 156.748 4.87639 156.162 5.70768L151.837 11.7628L147.056 5.03662C146.698 4.54658 146.427 4.14499 146.24 3.82142C146.057 3.49161 145.943 3.27209 145.933 3.01303C145.924 2.6208 146.148 2.25874 146.501 2.07979C146.85 1.89355 147.299 1.82385 147.87 1.82072H148.769V1.36815H141.052V1.82593C142.034 1.8613 142.831 2.0673 143.437 2.4793C143.969 2.85385 144.609 3.58837 145.425 4.71305L151.151 12.7575L145.248 20.9808C143.629 23.2427 141.835 24.4891 139.882 24.6066V25.0675H147.955V24.617C146.955 24.6025 146.182 24.5161 145.617 24.3403C145.012 24.1613 144.553 23.8034 144.551 23.252C144.562 22.9846 144.679 22.7443 144.875 22.3843C145.073 22.0327 145.361 21.5926 145.745 21.0536L151.415 13.157L157.261 21.3731Z" fill="black"/>
<path d="M39.1219 22.6746C40.3277 23.8128 41.5127 24.59 42.6728 25.0218C43.6685 25.4067 44.8597 25.6033 46.2487 25.6033C48.4398 25.6023 50.2386 25.0197 51.6941 23.8607C53.158 22.7058 53.8748 21.1806 53.8811 19.1757C53.8738 16.866 53.0227 15.1878 51.2894 14.0091C50.4509 13.4535 48.5282 12.6805 45.588 11.7399C43.0744 10.9336 41.5741 10.4093 41.0009 10.1242C39.2623 9.20552 38.3166 7.87484 38.3229 6.23933C38.3166 4.64751 38.9804 3.34076 40.2632 2.44393C41.3608 1.69588 42.705 1.32654 44.2625 1.32654C46.566 1.32445 48.4366 2.02673 49.7975 3.43856C50.9232 4.59029 51.7919 6.29967 52.4339 8.55631H52.7689L52.7668 1.08828H52.1863L50.9128 3.90362L50.6007 3.58317C48.8299 1.77183 46.7064 0.879162 44.1564 0.875C42.1307 0.87604 40.514 1.42225 39.2561 2.49907C38.018 3.6071 37.4146 4.9794 37.4094 6.70023C37.4156 8.52094 38.1949 9.94941 39.8262 11.0897C40.7928 11.7431 42.5261 12.4745 44.996 13.2496C47.6751 14.1298 49.3335 14.7488 50.0503 15.1535C51.8731 16.2022 52.8344 17.7764 52.8251 19.7417C52.8303 21.371 52.076 22.7506 50.6413 23.7816C49.3616 24.694 47.8852 25.1518 46.2466 25.1508C41.5523 25.1705 38.4664 22.3635 37.1847 17.021L36.8351 17.019V25.2839H37.2752L38.8306 22.3999L39.1219 22.6746Z" fill="#787E85"/>
<path d="M74.2324 22.6746C75.4393 23.8128 76.6233 24.59 77.7833 25.0218C78.779 25.4067 79.9703 25.6033 81.3592 25.6033C83.5503 25.6023 85.3492 25.0197 86.8047 23.8607C88.2685 22.7058 88.9854 21.1806 88.9916 19.1757C88.9843 16.866 88.1333 15.1878 86.4 14.0091C85.5614 13.4535 83.6387 12.6805 80.6985 11.7399C78.1849 10.9336 76.6857 10.4093 76.1114 10.1242C74.3718 9.20552 73.4261 7.87484 73.4334 6.23933C73.4261 4.64751 74.0899 3.34076 75.3738 2.44393C76.4714 1.69588 77.8156 1.32654 79.3731 1.32654C81.6765 1.32445 83.5472 2.02673 84.908 3.43856C86.0337 4.59029 86.9025 6.29967 87.5444 8.55631H87.8794L87.8773 1.08828H87.2978L86.0244 3.90362L85.7123 3.58317C83.9415 1.77183 81.818 0.879162 79.268 0.875C77.2423 0.87604 75.6255 1.42225 74.3677 2.49907C73.1296 3.6071 72.5251 4.9794 72.521 6.70023C72.5272 8.52094 73.3065 9.94941 74.9378 11.0897C75.9044 11.7431 77.6377 12.4745 80.1076 13.2496C82.7866 14.1298 84.445 14.7488 85.1619 15.1535C86.9836 16.2022 87.946 17.7764 87.9366 19.7417C87.9418 21.371 87.1875 22.7506 85.7528 23.7816C84.4742 24.694 82.9968 25.1518 81.3582 25.1508C76.6639 25.1705 73.578 22.3635 72.2962 17.021L71.9477 17.019V25.2839H72.3878L73.9421 22.3999L74.2324 22.6746Z" fill="black"/>
</svg>
