<svg width="34" height="45" viewBox="0 0 34 45" fill="none" xmlns="http://www.w3.org/2000/svg">
<path d="M29.4824 17.0861C28.1211 16.3244 26.9191 16.0472 25.8682 16.0454C25.4925 16.0454 25.1397 16.085 24.8017 16.1476C24.4609 16.2185 24.1468 16.3042 23.8604 16.4046C23.526 16.5262 23.2129 16.6698 22.9255 16.8329L22.9218 16.8255C21.4123 17.6682 21.007 18.8462 20.9462 19.0001C20.9416 19.012 20.9425 19.012 20.9425 19.012L20.8071 19.4937L20.3328 19.3289C19.934 19.1907 19.5628 19.1364 19.2091 19.1364C18.5423 19.129 17.9326 19.3454 17.4315 19.6199C18.5865 20.4535 19.4403 21.462 19.8852 22.0524C20.2076 21.648 20.727 21.0457 21.3938 20.435C22.5405 19.3943 24.1266 18.3028 25.9557 18.2936C26.8795 18.2927 27.8457 18.5911 28.7621 19.2957C30.5139 20.6367 31.0914 22.7164 31.0877 24.7814C31.0767 28.0695 29.6961 31.4479 28.8865 32.7742C28.7981 32.9326 25.9281 38.0941 20.19 42.3741L20.0639 42.4662H19.7065L19.5822 42.3741C13.8091 38.0692 10.9134 32.869 10.8599 32.7732C10.0476 31.446 8.6688 28.0667 8.65959 24.7814C8.65591 22.7164 9.23248 20.6367 10.9843 19.2957C11.7441 18.7109 12.5418 18.4032 13.3182 18.3185C13.6415 17.9878 14.5229 17.111 15.6622 16.353C15.1087 16.1762 14.4999 16.0666 13.8395 16.0666C12.7877 16.0666 11.5995 16.3419 10.2677 17.0871C7.08002 18.8637 6.43897 22.4245 6.43805 24.9675C6.43805 25.7439 6.49791 26.4162 6.56054 26.8906C6.61949 27.3649 6.67844 27.6283 6.67844 27.6283L6.68028 27.6431L6.68396 27.6642C6.68581 27.6642 6.70147 27.7978 6.76042 28.0732C6.81844 28.3458 6.91606 28.7529 7.0708 29.265C7.38027 30.291 7.92 31.7472 8.83827 33.4493C10.6546 36.8092 13.9417 41.1307 19.876 45C30.3039 38.1954 32.5835 29.9825 32.9915 28.0732C33.0505 27.7978 33.0661 27.6642 33.0661 27.6642L33.0698 27.644L33.0735 27.6302C33.0717 27.6283 33.1306 27.3649 33.1905 26.8906C33.2494 26.4162 33.3102 25.7439 33.3102 24.9675C33.3065 22.4236 32.6673 18.8628 29.4824 17.0861ZM17.9492 16.2443L18.0965 16.2489L18.1214 16.1881C18.0661 16.2038 18.0081 16.225 17.9492 16.2443Z" fill="black"/>
<path d="M25.428 19.2819C24.6755 19.3933 23.9341 19.7286 23.2599 20.1716C24.2877 21.4519 24.6552 23.1033 24.6516 24.7427C24.6423 28.0437 23.2497 31.4377 22.442 32.7511C22.2854 33.033 20.5907 36.0006 17.3275 39.2435C17.8221 39.7077 18.348 40.1719 18.9052 40.6324C24.7234 35.0325 26.2311 29.5496 26.5553 28.0327C26.6115 27.7573 26.6299 27.6265 26.6299 27.6237L26.6336 27.6035L26.6373 27.5887C26.6355 27.586 26.6944 27.3225 26.7534 26.8482C26.8132 26.3739 26.8749 25.7015 26.8749 24.9251C26.8703 23.2202 26.5793 21.0577 25.428 19.2819ZM13.7538 42.3345L13.6286 42.4285H13.2703L13.146 42.3345C7.45396 38.0931 4.56189 32.9823 4.42466 32.741C3.61691 31.4175 2.23168 28.0336 2.22063 24.7418C2.21694 22.6768 2.79443 20.5981 4.54624 19.2543C5.46083 18.5488 6.42976 18.2503 7.35172 18.2522C7.39685 18.2522 7.43737 18.2559 7.47974 18.2568C8.02131 17.5614 8.70288 16.9296 9.55668 16.4064C8.92209 16.1697 8.20829 16.0187 7.42909 16.0187C6.36805 16.0187 5.16979 16.2941 3.8306 17.0465C0.642894 18.8223 0.00184207 22.383 0 24.9251C0 25.7015 0.0607994 26.3739 0.120667 26.8482C0.180534 27.3225 0.237637 27.586 0.237637 27.5887L0.239478 27.6035L0.243161 27.6237C0.245003 27.6265 0.262495 27.7564 0.3196 28.0327C0.377625 28.3053 0.476189 28.7115 0.629081 29.2245C0.938549 30.2505 1.48011 31.7058 2.39838 33.4088C4.21375 36.7715 7.50277 41.0902 13.4361 44.9585C14.3028 44.3949 15.1068 43.8174 15.8649 43.2362C15.3224 42.7914 14.8075 42.3437 14.3221 41.897C14.137 42.0444 13.9473 42.1899 13.7538 42.3345ZM11.5378 20.0639C11.6705 20.1735 11.7939 20.2849 11.9173 20.3936C12.5924 21.0098 13.1174 21.6232 13.4379 22.022C13.7585 21.6223 14.2825 21.0098 14.9586 20.3936C15.1179 20.2508 15.2874 20.1044 15.4633 19.9607C15.9174 19.4762 17.2621 18.2089 19.2101 18.1886C19.5287 18.1886 19.8631 18.2245 20.2048 18.3065C20.2066 18.3065 20.2085 18.3065 20.2085 18.3065C20.4323 17.8488 20.902 17.1147 21.7696 16.4552C20.9361 16.1476 20.1679 16.0196 19.467 16.0196C19.1069 16.0177 18.7643 16.0509 18.4346 16.1108L18.4364 16.1135C16.8412 16.423 15.0405 17.9501 14.2788 18.6934C14.2273 18.7459 14.1794 18.7919 14.1351 18.8352C14.1084 18.8693 14.0808 18.9061 14.0596 18.9337C13.9998 19.0157 13.974 19.0526 13.974 19.0526L13.8321 19.2644L13.4158 19.2635C12.8144 19.3289 12.201 19.5591 11.5609 20.0464C11.5516 20.051 11.5452 20.0583 11.5378 20.0639Z" fill="black"/>
<path d="M26.3389 7.66026L25.4289 10.0743L22.7045 9.36141L23.2313 6.71896L21.0531 6.23081L20.576 8.77748L17.4223 8.60893V3.83888H19.5481V2.20865H17.3827V0H15.7507V2.20865H13.3781V3.96322H15.7912V8.59419L12.4828 8.8705L11.9569 6.29068L9.85878 6.65817L10.3819 9.35589L7.60409 10.1259L6.80831 7.70171L4.70835 8.65314L7.12699 15.07L7.13435 15.0829C7.23198 15.0774 7.32961 15.0737 7.42632 15.0737C8.24512 15.0774 8.99024 15.221 9.66168 15.4476C9.35221 14.6426 8.93682 13.5678 8.45512 12.3419L8.27737 11.8878L8.73419 11.7248C11.454 10.7457 14.1646 10.4261 16.5492 10.4261C21.1074 10.4261 24.4821 11.5876 24.5125 11.5977L24.9877 11.7607L23.4321 15.5535C24.1487 15.2791 24.961 15.0995 25.8636 15.0995C25.8986 15.0995 25.9345 15.1013 25.9705 15.1022L28.3477 8.60709L26.3389 7.66026Z" fill="black"/>
</svg>
