<svg viewBox="0 0 12 10" fill="currentColor" xmlns="http://www.w3.org/2000/svg">
<path fill-rule="evenodd" clip-rule="evenodd" d="M6.48987 0.132788C6.57501 0.0477597 6.69041 0 6.81073 0C6.93106 0 7.04646 0.0477597 7.13159 0.132788L11.6721 4.67328C11.7571 4.75841 11.8049 4.87381 11.8049 4.99414C11.8049 5.11446 11.7571 5.22986 11.6721 5.315L7.13159 9.85549C7.09003 9.9001 7.0399 9.93588 6.9842 9.96069C6.92851 9.98551 6.86838 9.99885 6.80742 9.99993C6.74645 10.001 6.68589 9.98979 6.62936 9.96695C6.57282 9.94412 6.52146 9.91013 6.47835 9.86701C6.43523 9.8239 6.40124 9.77254 6.3784 9.716C6.35557 9.65946 6.34435 9.59891 6.34543 9.53794C6.3465 9.47698 6.35985 9.41685 6.38466 9.36116C6.40948 9.30546 6.44526 9.25533 6.48987 9.21376L10.2554 5.44819H0.454049C0.333628 5.44819 0.218138 5.40035 0.132988 5.3152C0.0478371 5.23005 0 5.11456 0 4.99414C0 4.87372 0.0478371 4.75823 0.132988 4.67308C0.218138 4.58793 0.333628 4.54009 0.454049 4.54009H10.2554L6.48987 0.774511C6.40484 0.689376 6.35708 0.573973 6.35708 0.453649C6.35708 0.333326 6.40484 0.217923 6.48987 0.132788Z"/>
</svg>
